<?xml version="1.0" encoding="utf-8"?>
<!-- Generator: Adobe Illustrator 16.0.0, SVG Export Plug-In . SVG Version: 6.00 Build 0)  -->
<!DOCTYPE svg PUBLIC "-//W3C//DTD SVG 1.1//EN" "http://www.w3.org/Graphics/SVG/1.1/DTD/svg11.dtd">
<svg version="1.1"
	 id="svg2" inkscape:export-ydpi="4.2362185" inkscape:export-xdpi="4.2362185" inkscape:export-filename="/home/uwe/Desktop/Zeichen_237.png" sodipodi:docname="Zeichen_237.svg" inkscape:version="0.45" sodipodi:version="0.32" sodipodi:modified="TRUE" inkscape:output_extension="org.inkscape.output.svg.inkscape" sodipodi:docbase="/home/uwe/Desktop" xmlns:dc="http://purl.org/dc/elements/1.1/" xmlns:cc="http://web.resource.org/cc/" xmlns:rdf="http://www.w3.org/1999/02/22-rdf-syntax-ns#" xmlns:svg="http://www.w3.org/2000/svg" xmlns:sodipodi="http://sodipodi.sourceforge.net/DTD/sodipodi-0.dtd" xmlns:inkscape="http://www.inkscape.org/namespaces/inkscape"
	 xmlns="http://www.w3.org/2000/svg" xmlns:xlink="http://www.w3.org/1999/xlink" x="0px" y="0px" width="589.138px"
	 height="359.791px" viewBox="78.619 167.859 589.138 359.791" enable-background="new 78.619 167.859 589.138 359.791"
	 xml:space="preserve">
<g id="g3138" transform="translate(-90.847666,-19.594595)" inkscape:export-ydpi="4.2362185" inkscape:export-xdpi="4.2362185">
	
		<circle id="FrontWheel" sodipodi:ry="161" sodipodi:rx="161" sodipodi:cy="409" sodipodi:cx="215" fill="none" stroke="#5A5A5A" stroke-width="40" cx="288.03" cy="428.681" r="98.563">
	</circle>
	
		<circle id="RearWheel" sodipodi:ry="161" sodipodi:rx="161" sodipodi:cy="406" sodipodi:cx="790" fill="none" stroke="#5A5A5A" stroke-width="40" cx="640.041" cy="426.844" r="98.563">
	</circle>
	<defs>
		<filter id="Adobe_OpacityMaskFilter" filterUnits="userSpaceOnUse" x="276.048" y="187.453" width="379.943" height="262.688">
			<feFlood  style="flood-color:white;flood-opacity:1" result="back"/>
			<feBlend  in="SourceGraphic" in2="back" mode="normal"/>
		</filter>
	</defs>
	<mask maskUnits="userSpaceOnUse" x="276.048" y="187.453" width="379.943" height="262.688" id="SVGID_1_">
		<g filter="url(#Adobe_OpacityMaskFilter)">
			<g>
				<polygon stroke="#000000" stroke-width="0.6122" points="348.707,276.19 538.648,275.853 483.754,423.36 				"/>
				<polygon stroke="#000000" stroke-width="0.6122" points="561.549,284.946 507.665,426.391 625.536,426.728 				"/>
			</g>
		</g>
	</mask>
	<path mask="url(#SVGID_1_)" fill="#5A5A5A" stroke="#5A5A5A" stroke-width="0.6122" d="M419.336,187.763
		c-81.156,0.791-67.393-8.384-111.056,131.938c-35.57,112.118-31.695,99.891-31.881,107.756c-0.13,6.109,4.802,10.953,10.999,11.368
		c12.889-1.303,7.468,1.394,52.153-137.37C502.83,473.699,441.571,445.768,529.442,449.266
		c115.485-1.107,124.872,6.012,126.243-10.916c-0.158-5.748-2.848-9.176-82.105-185.568l7.594-20.882l26.103-0.475l-0.949-21.832
		h-97.292c-8.596,11.76,3.48,11.707,46.985,21.357l-7.594,21.357l-194.111,0.475c13.078-45.667,5.695-42.819,64.545-42.714
		L419.336,187.763z"/>
</g>
</svg>
