<?xml version="1.0" encoding="utf-8"?>
<!-- Generator: Adobe Illustrator 16.0.0, SVG Export Plug-In . SVG Version: 6.00 Build 0)  -->
<!DOCTYPE svg PUBLIC "-//W3C//DTD SVG 1.1//EN" "http://www.w3.org/Graphics/SVG/1.1/DTD/svg11.dtd">
<svg version="1.1"
	 id="svg2" sodipodi:docname="rock_climbing.svg" inkscape:version="0.48.1 r9760" xmlns:dc="http://purl.org/dc/elements/1.1/" xmlns:cc="http://creativecommons.org/ns#" xmlns:rdf="http://www.w3.org/1999/02/22-rdf-syntax-ns#" xmlns:svg="http://www.w3.org/2000/svg" xmlns:sodipodi="http://sodipodi.sourceforge.net/DTD/sodipodi-0.dtd" xmlns:inkscape="http://www.inkscape.org/namespaces/inkscape"
	 xmlns="http://www.w3.org/2000/svg" xmlns:xlink="http://www.w3.org/1999/xlink" x="0px" y="0px" width="389.056px"
	 height="515.375px" viewBox="72.274 11.067 389.056 515.375" enable-background="new 72.274 11.067 389.056 515.375"
	 xml:space="preserve">
<sodipodi:namedview  fit-margin-bottom="0" fit-margin-right="0" inkscape:window-maximized="0" inkscape:current-layer="svg2" inkscape:window-y="0" inkscape:window-x="0" inkscape:pageopacity="0" inkscape:pageshadow="2" inkscape:window-width="640" inkscape:window-height="480" inkscape:cy="42.945985" inkscape:cx="336.89826" inkscape:zoom="0.24991396" pagecolor="#ffffff" bordercolor="#666666" borderopacity="1" gridtolerance="10" guidetolerance="10" objecttolerance="10" id="namedview15" fit-margin-left="0" fit-margin-top="0" showgrid="false">
	</sodipodi:namedview>
<g id="g5" transform="translate(-35.14898,-25.367676)">
	<title  id="title7">Layer 1</title>
	<path id="path5040" inkscape:connector-curvature="0" fill="#5A5A5A" d="M307.885,378.241c-4.816,1.777-10.206,2.81-15.711,2.81
		c-5.906,0-11.754-0.688-17.145-2.236l-60.896,139.968c-5.562,12.902-20.872,17.26-34.232,9.748
		c-13.303-7.512-19.61-23.968-13.876-36.87l74.657-171.219h95.185v-15.997l48.166-22.42c12.615-6.135,29.014,4.358,32.34,17.718
		l23.625,94.727c3.383,13.418-4.816,27.007-18.234,30.333c-13.475,3.383-27.123-4.817-30.447-18.234l-15.023-60.38L307.885,378.241z
		"/>
	<path id="path5042" inkscape:connector-curvature="0" fill="#5A5A5A" d="M351.75,280.131
		C456.053,228.41,496.479,51.228,496.479,36.435h-14.336c-5.391,36.927-50.172,184.808-130.393,227.699V280.131z"/>
	<path id="path5044" inkscape:connector-curvature="0" fill="#5A5A5A" d="M159.316,241.369c5.447,8.543,16.457,12.328,26.205,8.314
		l55.161-21.618v76.492h95.185v-88.591L421.19,79.44c6.25-9.978,3.383-23.166-6.709-29.588c-9.977-6.25-23.164-3.326-28.785,6.422
		l-72.478,116l-43.636,0.115c-2.81,0-5.62,0.458-8.429,1.548l-75.403,29.587l-38.876-58.889
		c-6.365-9.862-19.611-12.787-29.588-6.422c-9.977,6.422-12.844,19.725-6.479,29.702L159.316,241.369L159.316,241.369z"/>
	<path id="path5046" inkscape:connector-curvature="0" fill="#5A5A5A" d="M281.738,164.533c20.987,0,38.017-16.915,38.017-37.845
		c0-20.929-17.03-37.959-38.017-37.959c-20.929,0-37.959,17.03-37.959,37.959C243.779,147.618,260.809,164.533,281.738,164.533"/>
	<path id="path5048" inkscape:connector-curvature="0" fill="#5A5A5A" d="M335.867,551.81V381.05l-15.998,7.455V551.81H335.867z"/>
</g>
</svg>
