<?xml version="1.0" encoding="utf-8"?>
<!-- Generator: Adobe Illustrator 16.0.0, SVG Export Plug-In . SVG Version: 6.00 Build 0)  -->
<!DOCTYPE svg PUBLIC "-//W3C//DTD SVG 1.1//EN" "http://www.w3.org/Graphics/SVG/1.1/DTD/svg11.dtd">
<svg version="1.1"
	 id="svg2" sodipodi:docname="kayak1.svg" inkscape:version="0.46+devel r21031" sodipodi:version="0.32" inkscape:output_extension="org.inkscape.output.svg.inkscape" xmlns:dc="http://purl.org/dc/elements/1.1/" xmlns:cc="http://creativecommons.org/ns#" xmlns:rdf="http://www.w3.org/1999/02/22-rdf-syntax-ns#" xmlns:svg="http://www.w3.org/2000/svg" xmlns:sodipodi="http://sodipodi.sourceforge.net/DTD/sodipodi-0.dtd" xmlns:inkscape="http://www.inkscape.org/namespaces/inkscape"
	 xmlns="http://www.w3.org/2000/svg" xmlns:xlink="http://www.w3.org/1999/xlink" x="0px" y="0px" width="305.5px"
	 height="260.793px" viewBox="11.881 18.881 305.5 260.793" enable-background="new 11.881 18.881 305.5 260.793"
	 xml:space="preserve">
<defs>
	
	
		<inkscape:perspective  id="perspective9" sodipodi:type="inkscape:persp3d" inkscape:vp_y="0 : 1000 : 0" inkscape:vp_z="744.09448 : 526.18109 : 1" inkscape:vp_x="0 : 526.18109 : 1" inkscape:persp3d-origin="372.04724 : 350.78739 : 1">
		</inkscape:perspective>
</defs>
<sodipodi:namedview  inkscape:current-layer="svg2" inkscape:window-y="-4" inkscape:window-x="1277" inkscape:pageopacity="0.0" inkscape:pageshadow="2" inkscape:window-width="1280" inkscape:window-height="975" inkscape:cy="201.75143" inkscape:cx="156.0602" inkscape:zoom="1.1949917" pagecolor="#ffffff" bordercolor="#666666" borderopacity="1.0" gridtolerance="10.0" guidetolerance="10.0" objecttolerance="10.0" id="base" showgrid="false" inkscape:showpageshadow="false">
	</sodipodi:namedview>
<path id="path3174" sodipodi:ry="4.1612482" sodipodi:rx="4.2262678" sodipodi:cy="21.391417" sodipodi:cx="28.673601" sodipodi:type="arc" fill="#5A5A5A" fill-opacity="0.9608" stroke="#5A5A5A" d="
	M212.375,138.681c0,12.249-10.104,22.179-22.568,22.179s-22.57-9.93-22.57-22.179l0,0c0-12.249,10.105-22.179,22.57-22.179
	S212.375,126.432,212.375,138.681z"/>
<path id="path3176" sodipodi:nodetypes="cszcccccccczczcccccccz" fill="#5A5A5A" stroke="#5A5A5A" stroke-width="6" d="
	M149.17,161.727c9.837,4.462,18.371,7.84,32.248,9.695c13.877,1.855,22.047-0.946,46.849,9.388
	c24.802,10.336,45.241,45.318,64.978,78.836l-11.676,6.045l-20.927,6.352l-20.039-11.4l-17.89-2.388l-10.344,7.82
	c0,0,4.402-5.169,5.281-21.438c0.889-16.421-20.014-38.303-20.014-38.303s-39.856,27.335-52.364,29.595s-67.099-3.71-79.28-5.272
	c0,0-4.725-6.281-2.931-8.879c1.794-2.6,0.675-3.59,9.109-3.551c0,0,61.399,10.598,76.044,4.385
	c15.515-6.582,33.467-25.011,31.249-31.668c-2.219-6.656-28.263-13.942-36.066-18.639c-7.544-4.883-24.348-13.551-24.348-13.551
	s-8.638-5.742-2.663-12.215c5.325-5.769,11.933,0.376,11.933,0.376S139.333,157.264,149.17,161.727L149.17,161.727z"/>
<path id="path3178" sodipodi:nodetypes="czzzcccc" fill="#5A5A5A" stroke="#5A5A5A" stroke-width="6" d="M174.864,80.739
	c-2.04-18.076,3.562-34.236,11.611-43.303c8.049-9.067,23.461-19.188,33.535-10.29c9.823,8.676,1.686,22.531-4.896,32.194
	c-6.581,9.663-25.832,19.285-38.996,22.086L45.127,255.276l-0.58-0.189L174.864,80.739z"/>
<path id="path3184_2_" sodipodi:nodetypes="csssssssssscccccc" fill="none" stroke="#5A5A5A" stroke-width="6" d="M320.768,272.395
	c0,0-17.812-12.52-26.627-12.426c-9.943,0.104-19.793,14.404-29.734,14.645c-12.041,0.291-23.458-15.594-35.503-15.533
	c-10.788,0.057-23.386,14.312-34.173,14.202c-10.005-0.103-20.174-14.026-30.178-14.202c-10.138-0.176-20.926,13.375-31.065,13.314
	c-10.192-0.061-20.874-13.9-31.065-13.758c-9.587,0.135-19.26,13.928-28.847,13.758c-10.658-0.188-20.854-16.123-31.509-16.42
	C31.404,255.676,9.669,270.62,9.669,270.62"/>
</svg>
